<svg xmlns="http://www.w3.org/2000/svg" viewBox="0 0 512 512" width="512" height="512">
  <defs>
    <linearGradient id="bgGrad" x1="0%" y1="0%" x2="100%" y2="100%">
      <stop offset="0%" stop-color="#003B99" />
      <stop offset="50%" stop-color="#005CE6" />
      <stop offset="100%" stop-color="#00C48C" />
    </linearGradient>
  </defs>
  <rect width="512" height="512" rx="112" fill="url(#bgGrad)" />
  <circle cx="256" cy="256" r="180" fill="none" stroke="#ffffff" stroke-width="12" opacity="0.25" />
  <g transform="translate(136, 136)" fill="none" stroke="#ffffff" stroke-width="20" stroke-linecap="round" stroke-linejoin="round">
    <path d="M208 80c0-44.183-35.817-80-80-80S48 35.817 48 80c0 40 40 88 80 128 40-40 80-88 80-128z" fill="#ffffff" fill-opacity="0.2" />
    <path d="M128 208L32 112" stroke="#ffffff" />
    <path d="M128 208l96-96" stroke="#ffffff" />
    <circle cx="128" cy="100" r="32" fill="#00C48C" stroke="#ffffff" stroke-width="12" />
    <path d="M128 84v32M118 92h20c4 0 6 2 6 5s-2 5-6 5h-10c-4 0-6 2-6 5s2 5 6 5h20" stroke="#ffffff" stroke-width="6" />
  </g>
</svg>
